# Blender v2.93.1 OBJ File: ''
# www.blender.org
o blob
v 0.294857 0.442285 -0.294857
v 0.267840 0.267840 -0.178560
v 0.144442 0.144442 -0.144442
v 0.178560 0.267840 -0.267840
v 0.294857 -0.442285 -0.294857
v 0.178560 -0.267840 -0.267839
v 0.144442 -0.144442 -0.144442
v 0.267840 -0.267840 -0.178560
v -0.442285 -0.294857 -0.294857
v -0.267840 -0.178560 -0.267840
v -0.144442 -0.144442 -0.144442
v -0.267840 -0.267840 -0.178560
v 0.294857 -0.294857 -0.442285
v 0.267840 -0.178560 -0.267840
v 0.442285 -0.294857 0.294857
v 0.267839 -0.178560 0.267840
v 0.144442 -0.144442 0.144442
v 0.267839 -0.267840 0.178560
v 0.294857 0.294857 0.442285
v 0.267839 0.178560 0.267840
v 0.144442 0.144442 0.144442
v 0.178560 0.267840 0.267840
v 0.178560 -0.267840 0.267840
v 0.294857 -0.294857 0.442285
v 0.364265 -0.121422 0.364266
v 0.392881 -0.196440 0.589321
v 0.401649 -0.000000 0.401650
v 0.432877 -0.000000 0.649316
v 0.364265 0.121422 0.364266
v 0.392880 0.196440 0.589321
v -0.144442 -0.144442 0.144442
v -0.178560 -0.267840 0.267840
v -0.294857 -0.294857 0.442285
v -0.267840 -0.178560 0.267840
v -0.121422 -0.364265 0.364265
v -0.196441 -0.392881 0.589321
v 0.000000 -0.401650 0.401650
v 0.000000 -0.432878 0.649317
v 0.121422 -0.364265 0.364266
v 0.196440 -0.392881 0.589321
v -0.392881 -0.196440 0.589321
v -0.364265 -0.121422 0.364265
v -0.264332 -0.264332 0.792996
v 0.000000 -0.293503 0.880510
v 0.264332 -0.264332 0.792996
v -0.432878 -0.000000 0.649316
v -0.401650 -0.000000 0.401649
v -0.293504 -0.000000 0.880510
v 0.000000 -0.000000 0.982232
v 0.293503 -0.000000 0.880510
v -0.392881 0.196440 0.589321
v -0.364265 0.121422 0.364265
v -0.264332 0.264332 0.792996
v 0.000000 0.293503 0.880510
v 0.264332 0.264332 0.792996
v -0.294857 0.294857 0.442285
v -0.267840 0.178560 0.267840
v -0.196440 0.392880 0.589321
v 0.000000 0.432878 0.649317
v 0.196440 0.392881 0.589321
v -0.178560 0.267840 0.267840
v -0.144442 0.144442 0.144442
v -0.121422 0.364265 0.364265
v 0.000000 0.401649 0.401649
v 0.121422 0.364265 0.364265
v 0.267839 0.267840 0.178560
v 0.442285 0.294857 0.294857
v 0.589321 0.196440 0.392881
v 0.649316 -0.000000 0.432878
v 0.589321 -0.196440 0.392881
v 0.442285 0.294857 -0.294857
v 0.267840 0.178560 -0.267840
v 0.364265 0.364265 -0.121422
v 0.589321 0.392881 -0.196440
v 0.401649 0.401650 0.000000
v 0.649316 0.432878 0.000000
v 0.364265 0.364265 0.121422
v 0.589321 0.392881 0.196441
v 0.589321 0.196440 -0.392881
v 0.364265 0.121422 -0.364265
v 0.792996 0.264332 -0.264332
v 0.880510 0.293503 0.000000
v 0.792996 0.264332 0.264332
v 0.649317 0.000000 -0.432877
v 0.401650 0.000000 -0.401649
v 0.880510 0.000000 -0.293503
v 0.982232 0.000000 0.000000
v 0.880510 -0.000000 0.293504
v 0.589321 -0.196440 -0.392880
v 0.364266 -0.121422 -0.364265
v 0.792996 -0.264332 -0.264332
v 0.880510 -0.293503 -0.000000
v 0.792996 -0.264332 0.264332
v 0.442285 -0.294857 -0.294857
v 0.589321 -0.392881 -0.196440
v 0.649316 -0.432878 -0.000000
v 0.589321 -0.392881 0.196441
v 0.364265 -0.364265 -0.121422
v 0.401649 -0.401649 -0.000000
v 0.364265 -0.364265 0.121422
v 0.294857 0.294857 -0.442285
v 0.392881 0.196440 -0.589321
v 0.432878 0.000000 -0.649316
v 0.392881 -0.196440 -0.589321
v -0.144442 0.144442 -0.144442
v -0.178560 0.267840 -0.267839
v -0.294857 0.294857 -0.442285
v -0.267840 0.178560 -0.267840
v -0.121422 0.364265 -0.364265
v -0.196440 0.392881 -0.589321
v 0.000000 0.401650 -0.401649
v 0.000000 0.432878 -0.649316
v 0.121422 0.364265 -0.364265
v 0.196440 0.392881 -0.589321
v -0.392881 0.196440 -0.589321
v -0.364265 0.121422 -0.364265
v -0.264332 0.264332 -0.792996
v 0.000000 0.293503 -0.880510
v 0.264332 0.264332 -0.792996
v -0.432877 0.000000 -0.649316
v -0.401649 0.000000 -0.401649
v -0.293503 0.000000 -0.880510
v 0.000000 0.000000 -0.982232
v 0.293504 0.000000 -0.880510
v -0.392881 -0.196440 -0.589321
v -0.364265 -0.121422 -0.364265
v -0.264332 -0.264332 -0.792996
v 0.000000 -0.293503 -0.880510
v 0.264332 -0.264332 -0.792996
v -0.294857 -0.294857 -0.442285
v -0.196440 -0.392881 -0.589321
v 0.000000 -0.432878 -0.649316
v 0.196441 -0.392881 -0.589321
v -0.178560 -0.267840 -0.267840
v -0.121422 -0.364265 -0.364265
v 0.000000 -0.401649 -0.401649
v 0.121422 -0.364265 -0.364265
v -0.267840 0.267840 -0.178560
v -0.442285 0.294857 -0.294857
v -0.589321 0.196440 -0.392881
v -0.649316 0.000000 -0.432878
v -0.589321 -0.196440 -0.392881
v -0.267840 0.267840 0.178560
v -0.442285 0.294857 0.294857
v -0.364265 0.364265 0.121422
v -0.589321 0.392881 0.196440
v -0.401649 0.401649 0.000000
v -0.649316 0.432878 0.000000
v -0.364265 0.364265 -0.121422
v -0.589321 0.392881 -0.196440
v -0.589321 0.196440 0.392881
v -0.792996 0.264332 0.264332
v -0.880510 0.293503 0.000000
v -0.792996 0.264332 -0.264332
v -0.649317 -0.000000 0.432878
v -0.880510 -0.000000 0.293503
v -0.982232 0.000000 0.000000
v -0.880510 0.000000 -0.293503
v -0.589321 -0.196440 0.392881
v -0.792996 -0.264332 0.264332
v -0.880510 -0.293503 -0.000000
v -0.792996 -0.264332 -0.264332
v -0.442285 -0.294857 0.294857
v -0.589321 -0.392881 0.196440
v -0.649316 -0.432878 -0.000000
v -0.589321 -0.392881 -0.196441
v -0.267840 -0.267840 0.178560
v -0.364265 -0.364265 0.121422
v -0.401650 -0.401650 -0.000000
v -0.364265 -0.364265 -0.121422
v -0.294857 -0.442285 -0.294857
v -0.196440 -0.589321 -0.392881
v 0.000000 -0.649316 -0.432878
v 0.196440 -0.589321 -0.392881
v -0.294857 -0.442285 0.294857
v -0.392881 -0.589321 0.196440
v -0.432878 -0.649316 -0.000000
v -0.392881 -0.589321 -0.196441
v -0.196441 -0.589321 0.392881
v -0.264332 -0.792996 0.264332
v -0.293503 -0.880510 -0.000000
v -0.264332 -0.792996 -0.264332
v 0.000000 -0.649317 0.432878
v 0.000000 -0.880510 0.293503
v 0.000000 -0.982232 -0.000000
v 0.000000 -0.880510 -0.293503
v 0.196440 -0.589321 0.392881
v 0.264332 -0.792996 0.264332
v 0.293503 -0.880510 -0.000000
v 0.264332 -0.792996 -0.264332
v 0.294857 -0.442285 0.294857
v 0.392881 -0.589321 0.196440
v 0.432878 -0.649316 -0.000000
v 0.392881 -0.589321 -0.196440
v 0.294857 0.442285 0.294857
v 0.392881 0.589321 0.196441
v 0.432877 0.649317 0.000000
v 0.392881 0.589321 -0.196440
v -0.294857 0.442285 0.294857
v -0.196440 0.589321 0.392881
v 0.000000 0.649316 0.432878
v 0.196440 0.589321 0.392881
v -0.392881 0.589321 0.196440
v -0.264332 0.792996 0.264332
v 0.000000 0.880510 0.293504
v 0.264332 0.792996 0.264332
v -0.432878 0.649316 0.000000
v -0.293503 0.880510 0.000000
v 0.000000 0.982232 0.000000
v 0.293503 0.880510 0.000000
v -0.392881 0.589321 -0.196440
v -0.264332 0.792996 -0.264332
v 0.000000 0.880510 -0.293503
v 0.264332 0.792996 -0.264332
v -0.294857 0.442285 -0.294857
v -0.196440 0.589321 -0.392881
v 0.000000 0.649317 -0.432878
v 0.196440 0.589321 -0.392881
vn 0.6825 -0.2618 -0.6825
vn 0.6591 -0.5113 -0.5515
vn 0.5754 -0.5812 -0.5754
vn 0.5515 -0.5113 -0.6591
vn 0.6825 0.2618 -0.6825
vn 0.5515 0.5113 -0.6591
vn 0.5754 0.5812 -0.5754
vn 0.6591 0.5113 -0.5515
vn 0.2618 -0.6825 -0.6825
vn 0.5113 -0.5515 -0.6591
vn 0.5812 -0.5754 -0.5754
vn 0.5113 -0.6591 -0.5515
vn 0.6825 -0.6825 0.2618
vn 0.6591 -0.5515 0.5113
vn 0.5754 -0.5754 0.5812
vn 0.5515 -0.6591 0.5113
vn -0.2618 -0.6825 0.6825
vn -0.5113 -0.5515 0.6591
vn -0.5812 -0.5754 0.5754
vn -0.5113 -0.6591 0.5515
vn 0.6825 0.6825 -0.2618
vn 0.6591 0.5515 -0.5113
vn 0.5754 0.5754 -0.5812
vn 0.5515 0.6591 -0.5113
vn 0.5515 -0.6591 -0.5113
vn 0.5754 -0.5754 -0.5812
vn 0.6591 -0.5515 -0.5113
vn 0.6825 -0.6825 -0.2618
vn 0.8923 -0.3638 -0.2675
vn 0.8921 -0.4444 0.0821
vn 0.9878 0.0000 -0.1556
vn 0.9739 0.0000 0.2270
vn 0.8923 0.3638 -0.2675
vn 0.8921 0.4444 0.0821
vn -0.5754 -0.5754 -0.5812
vn -0.5515 -0.6591 -0.5113
vn -0.6825 -0.6825 -0.2618
vn -0.6591 -0.5515 -0.5113
vn -0.3638 -0.8923 -0.2675
vn -0.4444 -0.8921 0.0821
vn 0.0000 -0.9878 -0.1556
vn 0.0000 -0.9739 0.2270
vn 0.3638 -0.8923 -0.2675
vn 0.4444 -0.8921 0.0821
vn -0.8921 -0.4444 0.0821
vn -0.8923 -0.3638 -0.2675
vn -0.5762 -0.5762 0.5797
vn 0.0000 -0.6249 0.7807
vn 0.5762 -0.5762 0.5797
vn -0.9739 0.0000 0.2270
vn -0.9878 0.0000 -0.1556
vn -0.6249 -0.0000 0.7807
vn 0.0000 -0.0000 1.0000
vn 0.6249 0.0000 0.7807
vn -0.8921 0.4444 0.0821
vn -0.8923 0.3638 -0.2675
vn -0.5762 0.5762 0.5797
vn -0.0000 0.6249 0.7807
vn 0.5762 0.5762 0.5797
vn -0.6825 0.6825 -0.2618
vn -0.6591 0.5515 -0.5113
vn -0.4444 0.8921 0.0821
vn -0.0000 0.9739 0.2270
vn 0.4444 0.8921 0.0821
vn -0.5515 0.6591 -0.5113
vn -0.5754 0.5754 -0.5812
vn -0.3638 0.8923 -0.2675
vn -0.0000 0.9878 -0.1556
vn 0.3638 0.8923 -0.2675
vn -0.5113 0.6591 0.5515
vn -0.5812 0.5754 0.5754
vn -0.5113 0.5515 0.6591
vn -0.2618 0.6825 0.6825
vn -0.2675 0.3638 0.8923
vn 0.0821 0.4444 0.8921
vn -0.1556 -0.0000 0.9878
vn 0.2270 0.0000 0.9739
vn -0.2675 -0.3638 0.8923
vn 0.0821 -0.4444 0.8921
vn -0.5812 0.5754 -0.5754
vn -0.5113 0.6591 -0.5515
vn -0.2618 0.6825 -0.6825
vn -0.5113 0.5515 -0.6591
vn -0.2675 0.8923 -0.3638
vn 0.0821 0.8921 -0.4444
vn -0.1556 0.9878 -0.0000
vn 0.2270 0.9739 -0.0000
vn -0.2675 0.8923 0.3638
vn 0.0821 0.8921 0.4444
vn 0.0821 0.4444 -0.8921
vn -0.2675 0.3638 -0.8923
vn 0.5797 0.5762 -0.5762
vn 0.7807 0.6249 -0.0000
vn 0.5797 0.5762 0.5762
vn 0.2270 -0.0000 -0.9739
vn -0.1556 -0.0000 -0.9878
vn 0.7807 -0.0000 -0.6249
vn 1.0000 0.0000 -0.0000
vn 0.7807 -0.0000 0.6249
vn 0.0821 -0.4444 -0.8921
vn -0.2675 -0.3638 -0.8923
vn 0.5797 -0.5762 -0.5762
vn 0.7807 -0.6249 -0.0000
vn 0.5797 -0.5762 0.5762
vn -0.2618 -0.6825 -0.6825
vn -0.5113 -0.5515 -0.6591
vn 0.0821 -0.8921 -0.4444
vn 0.2270 -0.9739 -0.0000
vn 0.0821 -0.8921 0.4444
vn -0.5113 -0.6591 -0.5515
vn -0.5812 -0.5754 -0.5754
vn -0.2675 -0.8923 -0.3638
vn -0.1556 -0.9878 -0.0000
vn -0.2675 -0.8923 0.3638
vn 0.5515 0.6591 0.5113
vn 0.5754 0.5754 0.5812
vn 0.6591 0.5515 0.5113
vn 0.6825 0.6825 0.2618
vn 0.8923 0.3638 0.2675
vn 0.8921 0.4444 -0.0821
vn 0.9878 0.0000 0.1556
vn 0.9739 0.0000 -0.2270
vn 0.8922 -0.3638 0.2675
vn 0.8921 -0.4444 -0.0821
vn -0.5754 0.5754 0.5812
vn -0.5515 0.6591 0.5113
vn -0.6825 0.6825 0.2618
vn -0.6591 0.5515 0.5113
vn -0.3638 0.8923 0.2675
vn -0.4444 0.8921 -0.0821
vn 0.0000 0.9878 0.1556
vn 0.0000 0.9739 -0.2270
vn 0.3638 0.8923 0.2675
vn 0.4444 0.8921 -0.0821
vn -0.8921 0.4444 -0.0821
vn -0.8923 0.3638 0.2675
vn -0.5762 0.5762 -0.5797
vn -0.0000 0.6249 -0.7807
vn 0.5762 0.5762 -0.5797
vn -0.9739 0.0000 -0.2270
vn -0.9878 0.0000 0.1556
vn -0.6249 0.0000 -0.7807
vn -0.0000 0.0000 -1.0000
vn 0.6249 0.0000 -0.7807
vn -0.8921 -0.4444 -0.0821
vn -0.8923 -0.3638 0.2675
vn -0.5762 -0.5762 -0.5797
vn -0.0000 -0.6249 -0.7807
vn 0.5762 -0.5762 -0.5797
vn -0.6825 -0.6825 0.2618
vn -0.6591 -0.5515 0.5113
vn -0.4444 -0.8921 -0.0821
vn -0.0000 -0.9739 -0.2270
vn 0.4444 -0.8921 -0.0821
vn -0.5515 -0.6591 0.5113
vn -0.5754 -0.5754 0.5812
vn -0.3638 -0.8923 0.2675
vn -0.0000 -0.9878 0.1556
vn 0.3638 -0.8923 0.2675
vn 0.5113 0.6591 -0.5515
vn 0.5812 0.5754 -0.5754
vn 0.5113 0.5515 -0.6591
vn 0.2618 0.6825 -0.6825
vn 0.2675 0.3638 -0.8923
vn -0.0821 0.4444 -0.8921
vn 0.1556 -0.0000 -0.9878
vn -0.2270 -0.0000 -0.9739
vn 0.2675 -0.3638 -0.8923
vn -0.0821 -0.4444 -0.8921
vn 0.5812 0.5754 0.5754
vn 0.5113 0.6591 0.5515
vn 0.2618 0.6825 0.6825
vn 0.5113 0.5515 0.6591
vn 0.2675 0.8923 0.3638
vn -0.0821 0.8921 0.4444
vn 0.1556 0.9878 0.0000
vn -0.2270 0.9739 0.0000
vn 0.2675 0.8923 -0.3638
vn -0.0821 0.8921 -0.4444
vn -0.0821 0.4444 0.8921
vn 0.2675 0.3638 0.8923
vn -0.5797 0.5762 0.5762
vn -0.7807 0.6249 0.0000
vn -0.5797 0.5762 -0.5762
vn -0.2270 -0.0000 0.9739
vn 0.1556 0.0000 0.9878
vn -0.7807 -0.0000 0.6249
vn -1.0000 -0.0000 -0.0000
vn -0.7807 -0.0000 -0.6249
vn -0.0821 -0.4444 0.8921
vn 0.2675 -0.3638 0.8923
vn -0.5797 -0.5762 0.5762
vn -0.7807 -0.6249 0.0000
vn -0.5797 -0.5762 -0.5762
vn 0.2618 -0.6825 0.6825
vn 0.5113 -0.5515 0.6591
vn -0.0821 -0.8921 0.4444
vn -0.2270 -0.9739 0.0000
vn -0.0821 -0.8921 -0.4444
vn 0.5113 -0.6591 0.5515
vn 0.5812 -0.5754 0.5754
vn 0.2675 -0.8923 0.3638
vn 0.1556 -0.9878 0.0000
vn 0.2675 -0.8922 -0.3638
vn -0.6591 0.5113 -0.5515
vn -0.5754 0.5812 -0.5754
vn -0.5515 0.5113 -0.6591
vn -0.6825 0.2618 -0.6825
vn -0.3638 0.2675 -0.8923
vn -0.4444 -0.0821 -0.8921
vn 0.0000 0.1556 -0.9878
vn -0.0000 -0.2270 -0.9739
vn 0.3638 0.2675 -0.8923
vn 0.4444 -0.0821 -0.8921
vn -0.5754 0.5812 0.5754
vn -0.6591 0.5113 0.5515
vn -0.6825 0.2618 0.6825
vn -0.5515 0.5113 0.6591
vn -0.8923 0.2675 0.3638
vn -0.8921 -0.0821 0.4444
vn -0.9878 0.1556 0.0000
vn -0.9739 -0.2270 0.0000
vn -0.8922 0.2675 -0.3638
vn -0.8921 -0.0821 -0.4444
vn -0.4444 -0.0821 0.8921
vn -0.3638 0.2675 0.8923
vn -0.5762 -0.5797 0.5762
vn -0.6249 -0.7807 0.0000
vn -0.5762 -0.5797 -0.5762
vn -0.0000 -0.2270 0.9739
vn -0.0000 0.1556 0.9878
vn 0.0000 -0.7807 0.6249
vn 0.0000 -1.0000 0.0000
vn 0.0000 -0.7807 -0.6249
vn 0.4444 -0.0821 0.8921
vn 0.3638 0.2675 0.8923
vn 0.5762 -0.5797 0.5762
vn 0.6249 -0.7807 -0.0000
vn 0.5762 -0.5797 -0.5762
vn 0.6825 0.2618 0.6825
vn 0.5515 0.5113 0.6591
vn 0.8921 -0.0821 0.4444
vn 0.9739 -0.2270 -0.0000
vn 0.8921 -0.0821 -0.4444
vn 0.6591 0.5113 0.5515
vn 0.5754 0.5812 0.5754
vn 0.8923 0.2675 0.3638
vn 0.9878 0.1556 -0.0000
vn 0.8923 0.2675 -0.3638
vn 0.5515 -0.5113 0.6591
vn 0.5754 -0.5812 0.5754
vn 0.6591 -0.5113 0.5515
vn 0.6825 -0.2618 0.6825
vn 0.8923 -0.2675 0.3638
vn 0.8921 0.0821 0.4444
vn 0.9878 -0.1556 -0.0000
vn 0.9739 0.2270 -0.0000
vn 0.8923 -0.2675 -0.3638
vn 0.8921 0.0821 -0.4444
vn -0.5754 -0.5812 0.5754
vn -0.5515 -0.5113 0.6591
vn -0.6825 -0.2618 0.6825
vn -0.6591 -0.5113 0.5515
vn -0.3638 -0.2675 0.8923
vn -0.4444 0.0821 0.8921
vn 0.0000 -0.1556 0.9878
vn 0.0000 0.2270 0.9739
vn 0.3638 -0.2675 0.8923
vn 0.4444 0.0821 0.8921
vn -0.8921 0.0821 0.4444
vn -0.8923 -0.2675 0.3638
vn -0.5762 0.5797 0.5762
vn 0.0000 0.7807 0.6249
vn 0.5762 0.5797 0.5762
vn -0.9739 0.2270 0.0000
vn -0.9878 -0.1556 0.0000
vn -0.6249 0.7807 -0.0000
vn 0.0000 1.0000 -0.0000
vn 0.6249 0.7807 -0.0000
vn -0.8921 0.0821 -0.4444
vn -0.8923 -0.2675 -0.3638
vn -0.5762 0.5797 -0.5762
vn 0.0000 0.7807 -0.6249
vn 0.5762 0.5797 -0.5762
vn -0.6825 -0.2618 -0.6825
vn -0.6591 -0.5113 -0.5515
vn -0.4444 0.0821 -0.8921
vn 0.0000 0.2270 -0.9739
vn 0.4444 0.0821 -0.8921
vn -0.5515 -0.5113 -0.6591
vn -0.5754 -0.5812 -0.5754
vn -0.3638 -0.2675 -0.8923
vn 0.0000 -0.1556 -0.9878
vn 0.3638 -0.2675 -0.8923
s 1
f 1//1 2//2 3//3 4//4
f 5//5 6//6 7//7 8//8
f 9//9 10//10 11//11 12//12
f 13//13 14//14 7//15 6//16
f 15//17 16//18 17//19 18//20
f 19//21 20//22 21//23 22//24
f 23//25 17//26 16//27 24//28
f 24//28 16//27 25//29 26//30
f 26//30 25//29 27//31 28//32
f 28//32 27//31 29//33 30//34
f 30//34 29//33 20//22 19//21
f 31//35 32//36 33//37 34//38
f 32//36 35//39 36//40 33//37
f 35//39 37//41 38//42 36//40
f 37//41 39//43 40//44 38//42
f 39//43 23//25 24//28 40//44
f 34//38 33//37 41//45 42//46
f 33//37 36//40 43//47 41//45
f 36//40 38//42 44//48 43//47
f 38//42 40//44 45//49 44//48
f 40//44 24//28 26//30 45//49
f 42//46 41//45 46//50 47//51
f 41//45 43//47 48//52 46//50
f 43//47 44//48 49//53 48//52
f 44//48 45//49 50//54 49//53
f 45//49 26//30 28//32 50//54
f 47//51 46//50 51//55 52//56
f 46//50 48//52 53//57 51//55
f 48//52 49//53 54//58 53//57
f 49//53 50//54 55//59 54//58
f 50//54 28//32 30//34 55//59
f 52//56 51//55 56//60 57//61
f 51//55 53//57 58//62 56//60
f 53//57 54//58 59//63 58//62
f 54//58 55//59 60//64 59//63
f 55//59 30//34 19//21 60//64
f 57//61 56//60 61//65 62//66
f 56//60 58//62 63//67 61//65
f 58//62 59//63 64//68 63//67
f 59//63 60//64 65//69 64//68
f 60//64 19//21 22//24 65//69
f 66//70 21//71 20//72 67//73
f 67//73 20//72 29//74 68//75
f 68//75 29//74 27//76 69//77
f 69//77 27//76 25//78 70//79
f 70//79 25//78 16//18 15//17
f 3//80 2//81 71//82 72//83
f 2//81 73//84 74//85 71//82
f 73//84 75//86 76//87 74//85
f 75//86 77//88 78//89 76//87
f 77//88 66//70 67//73 78//89
f 72//83 71//82 79//90 80//91
f 71//82 74//85 81//92 79//90
f 74//85 76//87 82//93 81//92
f 76//87 78//89 83//94 82//93
f 78//89 67//73 68//75 83//94
f 80//91 79//90 84//95 85//96
f 79//90 81//92 86//97 84//95
f 81//92 82//93 87//98 86//97
f 82//93 83//94 88//99 87//98
f 83//94 68//75 69//77 88//99
f 85//96 84//95 89//100 90//101
f 84//95 86//97 91//102 89//100
f 86//97 87//98 92//103 91//102
f 87//98 88//99 93//104 92//103
f 88//99 69//77 70//79 93//104
f 90//101 89//100 94//105 14//106
f 89//100 91//102 95//107 94//105
f 91//102 92//103 96//108 95//107
f 92//103 93//104 97//109 96//108
f 93//104 70//79 15//17 97//109
f 14//106 94//105 8//110 7//111
f 94//105 95//107 98//112 8//110
f 95//107 96//108 99//113 98//112
f 96//108 97//109 100//114 99//113
f 97//109 15//17 18//20 100//114
f 4//115 3//116 72//117 101//118
f 101//118 72//117 80//119 102//120
f 102//120 80//119 85//121 103//122
f 103//122 85//121 90//123 104//124
f 104//124 90//123 14//14 13//13
f 105//125 106//126 107//127 108//128
f 106//126 109//129 110//130 107//127
f 109//129 111//131 112//132 110//130
f 111//131 113//133 114//134 112//132
f 113//133 4//115 101//118 114//134
f 108//128 107//127 115//135 116//136
f 107//127 110//130 117//137 115//135
f 110//130 112//132 118//138 117//137
f 112//132 114//134 119//139 118//138
f 114//134 101//118 102//120 119//139
f 116//136 115//135 120//140 121//141
f 115//135 117//137 122//142 120//140
f 117//137 118//138 123//143 122//142
f 118//138 119//139 124//144 123//143
f 119//139 102//120 103//122 124//144
f 121//141 120//140 125//145 126//146
f 120//140 122//142 127//147 125//145
f 122//142 123//143 128//148 127//147
f 123//143 124//144 129//149 128//148
f 124//144 103//122 104//124 129//149
f 126//146 125//145 130//150 10//151
f 125//145 127//147 131//152 130//150
f 127//147 128//148 132//153 131//152
f 128//148 129//149 133//154 132//153
f 129//149 104//124 13//13 133//154
f 10//151 130//150 134//155 11//156
f 130//150 131//152 135//157 134//155
f 131//152 132//153 136//158 135//157
f 132//153 133//154 137//159 136//158
f 133//154 13//13 6//16 137//159
f 138//160 105//161 108//162 139//163
f 139//163 108//162 116//164 140//165
f 140//165 116//164 121//166 141//167
f 141//167 121//166 126//168 142//169
f 142//169 126//168 10//10 9//9
f 62//170 143//171 144//172 57//173
f 143//171 145//174 146//175 144//172
f 145//174 147//176 148//177 146//175
f 147//176 149//178 150//179 148//177
f 149//178 138//160 139//163 150//179
f 57//173 144//172 151//180 52//181
f 144//172 146//175 152//182 151//180
f 146//175 148//177 153//183 152//182
f 148//177 150//179 154//184 153//183
f 150//179 139//163 140//165 154//184
f 52//181 151//180 155//185 47//186
f 151//180 152//182 156//187 155//185
f 152//182 153//183 157//188 156//187
f 153//183 154//184 158//189 157//188
f 154//184 140//165 141//167 158//189
f 47//186 155//185 159//190 42//191
f 155//185 156//187 160//192 159//190
f 156//187 157//188 161//193 160//192
f 157//188 158//189 162//194 161//193
f 158//189 141//167 142//169 162//194
f 42//191 159//190 163//195 34//196
f 159//190 160//192 164//197 163//195
f 160//192 161//193 165//198 164//197
f 161//193 162//194 166//199 165//198
f 162//194 142//169 9//9 166//199
f 34//196 163//195 167//200 31//201
f 163//195 164//197 168//202 167//200
f 164//197 165//198 169//203 168//202
f 165//198 166//199 170//204 169//203
f 166//199 9//9 12//12 170//204
f 12//205 11//206 134//207 171//208
f 171//208 134//207 135//209 172//210
f 172//210 135//209 136//211 173//212
f 173//212 136//211 137//213 174//214
f 174//214 137//213 6//6 5//5
f 31//215 167//216 175//217 32//218
f 167//216 168//219 176//220 175//217
f 168//219 169//221 177//222 176//220
f 169//221 170//223 178//224 177//222
f 170//223 12//205 171//208 178//224
f 32//218 175//217 179//225 35//226
f 175//217 176//220 180//227 179//225
f 176//220 177//222 181//228 180//227
f 177//222 178//224 182//229 181//228
f 178//224 171//208 172//210 182//229
f 35//226 179//225 183//230 37//231
f 179//225 180//227 184//232 183//230
f 180//227 181//228 185//233 184//232
f 181//228 182//229 186//234 185//233
f 182//229 172//210 173//212 186//234
f 37//231 183//230 187//235 39//236
f 183//230 184//232 188//237 187//235
f 184//232 185//233 189//238 188//237
f 185//233 186//234 190//239 189//238
f 186//234 173//212 174//214 190//239
f 39//236 187//235 191//240 23//241
f 187//235 188//237 192//242 191//240
f 188//237 189//238 193//243 192//242
f 189//238 190//239 194//244 193//243
f 190//239 174//214 5//5 194//244
f 23//241 191//240 18//245 17//246
f 191//240 192//242 100//247 18//245
f 192//242 193//243 99//248 100//247
f 193//243 194//244 98//249 99//248
f 194//244 5//5 8//8 98//249
f 22//250 21//251 66//252 195//253
f 195//253 66//252 77//254 196//255
f 196//255 77//254 75//256 197//257
f 197//257 75//256 73//258 198//259
f 198//259 73//258 2//2 1//1
f 62//260 61//261 199//262 143//263
f 61//261 63//264 200//265 199//262
f 63//264 64//266 201//267 200//265
f 64//266 65//268 202//269 201//267
f 65//268 22//250 195//253 202//269
f 143//263 199//262 203//270 145//271
f 199//262 200//265 204//272 203//270
f 200//265 201//267 205//273 204//272
f 201//267 202//269 206//274 205//273
f 202//269 195//253 196//255 206//274
f 145//271 203//270 207//275 147//276
f 203//270 204//272 208//277 207//275
f 204//272 205//273 209//278 208//277
f 205//273 206//274 210//279 209//278
f 206//274 196//255 197//257 210//279
f 147//276 207//275 211//280 149//281
f 207//275 208//277 212//282 211//280
f 208//277 209//278 213//283 212//282
f 209//278 210//279 214//284 213//283
f 210//279 197//257 198//259 214//284
f 149//281 211//280 215//285 138//286
f 211//280 212//282 216//287 215//285
f 212//282 213//283 217//288 216//287
f 213//283 214//284 218//289 217//288
f 214//284 198//259 1//1 218//289
f 138//286 215//285 106//290 105//291
f 215//285 216//287 109//292 106//290
f 216//287 217//288 111//293 109//292
f 217//288 218//289 113//294 111//293
f 218//289 1//1 4//4 113//294
