# Blender v2.93.1 OBJ File: ''
# www.blender.org
o axes
v 0.000000 -0.000000 -1.000000
v 0.000000 0.075000 -0.875000
v 0.000000 0.600000 0.000000
v 0.028701 0.069291 -0.875000
v 0.229610 0.554328 -0.000000
v 0.053033 0.053033 -0.875000
v 0.424264 0.424264 -0.000000
v 0.069291 0.028701 -0.875000
v 0.554328 0.229610 0.000000
v 0.075000 -0.000000 -0.875000
v 0.600000 0.000000 0.000000
v 0.069291 -0.028701 -0.875000
v 0.554328 -0.229610 0.000000
v 0.053033 -0.053033 -0.875000
v 0.424264 -0.424264 0.000000
v 0.028701 -0.069291 -0.875000
v 0.229610 -0.554328 0.000000
v 0.000000 -0.075000 -0.875000
v -0.000000 -0.600000 0.000000
v -0.028701 -0.069291 -0.875000
v -0.229610 -0.554328 0.000000
v -0.053033 -0.053033 -0.875000
v -0.424264 -0.424264 0.000000
v -0.069291 -0.028701 -0.875000
v -0.554328 -0.229610 0.000000
v -0.075000 -0.000000 -0.875000
v -0.600000 0.000000 0.000000
v -0.069291 0.028701 -0.875000
v -0.554328 0.229610 0.000000
v -0.053033 0.053033 -0.875000
v -0.424264 0.424264 -0.000000
v -0.028701 0.069291 -0.875000
v -0.229610 0.554328 -0.000000
v 0.153073 0.369552 -0.000000
v 0.000000 0.400000 0.000000
v 0.282843 0.282843 0.000000
v 0.369552 0.153073 0.000000
v 0.400000 0.000000 0.000000
v 0.369552 -0.153073 0.000000
v 0.282843 -0.282843 0.000000
v 0.153073 -0.369552 0.000000
v -0.000000 -0.400000 0.000000
v -0.153073 -0.369552 0.000000
v -0.282843 -0.282843 0.000000
v -0.369552 -0.153073 0.000000
v -0.400000 0.000000 0.000000
v -0.369552 0.153074 0.000000
v -0.282843 0.282843 0.000000
v -0.153073 0.369552 0.000000
v 0.000000 0.222730 -0.628783
v -0.085235 0.205776 -0.628783
v -0.157494 0.157494 -0.628783
v -0.205776 0.085235 -0.628783
v -0.222730 -0.000000 -0.628783
v -0.205776 -0.085235 -0.628783
v -0.157494 -0.157494 -0.628783
v -0.085235 -0.205776 -0.628783
v -0.000000 -0.222730 -0.628783
v 0.085235 -0.205776 -0.628783
v 0.157494 -0.157494 -0.628783
v 0.205776 -0.085235 -0.628783
v 0.222730 -0.000000 -0.628783
v 0.205776 0.085235 -0.628783
v 0.157494 0.157494 -0.628783
v 0.085235 0.205776 -0.628783
v 0.153073 0.369552 1.000000
v 0.000000 0.400000 1.000000
v 0.282843 0.282843 1.000000
v 0.369552 0.153073 1.000000
v 0.400000 0.000000 1.000000
v 0.369552 -0.153073 1.000000
v 0.282843 -0.282843 1.000000
v 0.153073 -0.369552 1.000000
v -0.000000 -0.400000 1.000000
v -0.153073 -0.369552 1.000000
v -0.282843 -0.282843 1.000000
v -0.369552 -0.153073 1.000000
v -0.400000 0.000000 1.000000
v -0.369552 0.153074 1.000000
v -0.282843 0.282843 1.000000
v -0.153073 0.369552 1.000000
v 2.542000 -0.300000 0.050000
v 2.287000 -0.139000 0.050000
v 2.042000 -0.300000 0.050000
v 2.231000 -0.072000 0.050000
v 2.154000 0.149000 0.050000
v 2.415000 0.149000 0.050000
v 2.344000 -0.072000 0.050000
v 1.514000 0.012000 0.050000
v 2.154000 -0.300000 -0.050000
v 2.042000 -0.300000 -0.050000
v 2.042000 0.149000 -0.050000
v 2.287000 -0.005000 -0.050000
v 2.344000 -0.072000 -0.050000
v 1.986000 0.012000 -0.050000
v 1.709000 0.012000 -0.050000
v 1.514000 0.012000 -0.050000
v 1.791000 0.094000 -0.050000
v 1.791000 0.094000 0.050000
v 1.986000 0.094000 -0.050000
v 1.986000 0.094000 0.050000
v 1.986000 0.012000 0.050000
v 1.791000 0.012000 -0.050000
v 1.791000 0.012000 0.050000
v 1.791000 -0.183000 -0.050000
v 1.791000 -0.183000 0.050000
v 1.709000 -0.183000 -0.050000
v 1.709000 -0.183000 0.050000
v 1.709000 0.012000 0.050000
v 1.514000 0.094000 -0.050000
v 1.514000 0.094000 0.050000
v 1.709000 0.094000 -0.050000
v 1.709000 0.094000 0.050000
v 1.709000 0.289000 -0.050000
v 1.709000 0.289000 0.050000
v 1.791000 0.289000 -0.050000
v 1.791000 0.289000 0.050000
v 2.542000 -0.300000 -0.050000
v 2.428000 -0.300000 -0.050000
v 2.428000 -0.300000 0.050000
v 2.287000 -0.139000 -0.050000
v 2.154000 -0.300000 0.050000
v 2.231000 -0.072000 -0.050000
v 2.042000 0.149000 0.050000
v 2.154000 0.149000 -0.050000
v 2.287000 -0.005000 0.050000
v 2.415000 0.149000 -0.050000
v 2.529000 0.149000 -0.050000
v 2.529000 0.149000 0.050000
v 0.094000 1.470000 0.050000
v 0.295000 1.896000 0.050000
v 0.511000 2.149000 0.050000
v 0.193000 1.470000 0.050000
v 0.094000 1.470000 -0.050000
v 0.174000 2.149000 -0.050000
v 0.295000 1.896000 -0.050000
v 0.411000 2.149000 -0.050000
v 0.193000 1.470000 -0.050000
v -0.178000 2.012000 -0.050000
v -0.260000 2.012000 -0.050000
v -0.455000 2.012000 -0.050000
v -0.178000 2.094000 -0.050000
v -0.178000 2.094000 0.050000
v 0.017000 2.094000 -0.050000
v 0.017000 2.094000 0.050000
v 0.017000 2.012000 -0.050000
v 0.017000 2.012000 0.050000
v -0.178000 2.012000 0.050000
v -0.178000 1.817000 -0.050000
v -0.178000 1.817000 0.050000
v -0.260000 1.817000 -0.050000
v -0.260000 1.817000 0.050000
v -0.260000 2.012000 0.050000
v -0.455000 2.012000 0.050000
v -0.455000 2.094000 -0.050000
v -0.455000 2.094000 0.050000
v -0.260000 2.094000 -0.050000
v -0.260000 2.094000 0.050000
v -0.260000 2.289000 -0.050000
v -0.260000 2.289000 0.050000
v -0.178000 2.289000 -0.050000
v -0.178000 2.289000 0.050000
v 0.247000 1.796000 -0.050000
v 0.247000 1.796000 0.050000
v 0.073000 2.149000 -0.050000
v 0.073000 2.149000 0.050000
v 0.174000 2.149000 0.050000
v 0.411000 2.149000 0.050000
v 0.511000 2.149000 -0.050000
v 0.358000 -0.220000 -1.950000
v 0.358000 -0.300000 -1.950000
v -0.036000 -0.300000 -1.950000
v -0.026000 0.069000 -1.950000
v 0.118000 -0.220000 -1.950000
v -0.330000 -0.126000 -1.950000
v -0.087000 -0.033000 -1.950000
v -0.087000 -0.126000 -1.950000
v 0.358000 -0.300000 -2.050000
v 0.202000 0.069000 -2.050000
v -0.026000 0.069000 -2.050000
v -0.026000 0.149000 -2.050000
v -0.087000 -0.033000 -2.050000
v -0.087000 -0.126000 -2.050000
v -0.330000 -0.126000 -2.050000
v -0.330000 -0.033000 -2.050000
v -0.330000 -0.033000 -1.950000
v 0.358000 -0.220000 -2.050000
v -0.036000 -0.300000 -2.050000
v 0.202000 0.069000 -1.950000
v -0.026000 0.149000 -1.950000
v 0.357000 0.149000 -2.050000
v 0.357000 0.149000 -1.950000
v 0.118000 -0.220000 -2.050000
vt 0.090909 0.000000
vt 0.000000 0.000000
vt 1.000000 0.000000
vt 0.909091 0.000000
vt 0.818182 0.000000
vt 0.727273 0.000000
vt 0.636364 0.000000
vt 0.545455 0.000000
vt 0.454545 0.000000
vt 0.363636 0.000000
vt 0.272727 0.000000
vt 0.181818 0.000000
vt 0.727273 0.000000
vt 0.818182 0.000000
vt 0.909091 0.000000
vt 1.000000 0.000000
vt 0.000000 0.000000
vt 0.090909 0.000000
vt 0.181818 0.000000
vt 0.272727 0.000000
vt 0.363636 0.000000
vt 0.454545 0.000000
vt 0.545455 0.000000
vt 0.636364 0.000000
vt 0.285714 0.000000
vt 0.428571 0.000000
vt 0.571429 0.000000
vt 0.714286 0.000000
vt 0.857143 0.000000
vt 1.000000 0.000000
vt 0.000000 0.000000
vt 0.142857 0.000000
vt 1.000000 0.000000
vt 0.857143 0.000000
vt 0.714286 0.000000
vt 0.571429 0.000000
vt 0.428571 0.000000
vt 0.285714 0.000000
vt 0.142857 0.000000
vt 0.000000 0.000000
vt 0.285714 0.000000
vt 0.142857 0.000000
vt 0.000000 0.000000
vt 1.000000 0.000000
vt 0.857143 0.000000
vt 0.714286 0.000000
vt 0.571429 0.000000
vt 0.428571 0.000000
vt 0.571429 0.000000
vt 0.714286 0.000000
vt 0.857143 0.000000
vt 1.000000 0.000000
vt 0.000000 0.000000
vt 0.142857 0.000000
vt 0.285714 0.000000
vt 0.428571 0.000000
vt 0.000000 0.000000
vt 1.000000 0.000000
vt 0.666667 0.000000
vt 0.333333 0.000000
vt 0.666667 0.000000
vt 1.000000 0.000000
vt 0.000000 0.000000
vt 0.333333 0.000000
vt 0.750000 0.250000
vt 0.750000 0.490000
vt 0.841844 0.471731
vt 0.062500 0.500000
vt 0.062500 0.640696
vt 0.000000 0.640696
vt 0.000000 0.500000
vt 0.919706 0.419706
vt 1.000000 0.640696
vt 1.000000 1.000000
vt 0.937500 1.000000
vt 0.937500 0.640696
vt 0.971731 0.341844
vt 0.875000 1.000000
vt 0.875000 0.640696
vt 0.990000 0.250000
vt 0.812500 1.000000
vt 0.812500 0.640696
vt 0.971731 0.158156
vt 0.750000 1.000000
vt 0.750000 0.640696
vt 0.919706 0.080294
vt 0.687500 1.000000
vt 0.687500 0.640696
vt 0.841844 0.028269
vt 0.625000 1.000000
vt 0.625000 0.640696
vt 0.750000 0.010000
vt 0.562500 1.000000
vt 0.562500 0.640696
vt 0.658156 0.028269
vt 0.500000 1.000000
vt 0.500000 0.640696
vt 0.580294 0.080294
vt 0.437500 1.000000
vt 0.437500 0.640696
vt 0.528269 0.158156
vt 0.375000 1.000000
vt 0.375000 0.640696
vt 0.510000 0.250000
vt 0.312500 1.000000
vt 0.312500 0.640696
vt 0.528269 0.341844
vt 0.250000 1.000000
vt 0.250000 0.640696
vt 0.580294 0.419706
vt 0.312500 1.000000
vt 0.250000 1.000000
vt 0.187500 1.000000
vt 0.187500 0.640696
vt 0.658156 0.471731
vt 0.125000 1.000000
vt 0.125000 0.640696
vt 0.062500 1.000000
vt 0.000000 1.000000
vt 0.062500 1.000000
vt 0.062500 1.000000
vt 0.000000 1.000000
vt 0.000000 1.000000
vt 0.187500 1.000000
vt 0.125000 1.000000
vt 0.875000 1.000000
vt 0.812500 1.000000
vt 0.750000 1.000000
vt 0.687500 1.000000
vt 0.625000 1.000000
vt 0.562500 1.000000
vt 0.500000 1.000000
vt 0.437500 1.000000
vt 0.375000 1.000000
vt 0.937500 1.000000
vt 1.000000 1.000000
vt 1.000000 0.500000
vt 0.937500 0.500000
vt 0.875000 0.500000
vt 0.812500 0.500000
vt 0.750000 0.500000
vt 0.687500 0.500000
vt 0.625000 0.500000
vt 0.562500 0.500000
vt 0.500000 0.500000
vt 0.437500 0.500000
vt 0.375000 0.500000
vt 0.312500 0.500000
vt 0.250000 0.500000
vt 0.187500 0.500000
vt 0.125000 0.500000
vt 0.250000 0.490000
vt 0.158156 0.471731
vt 0.080294 0.419706
vt 0.028269 0.341844
vt 0.010000 0.250000
vt 0.028269 0.158156
vt 0.080294 0.080294
vt 0.158156 0.028269
vt 0.250000 0.010000
vt 0.341844 0.028269
vt 0.419706 0.080294
vt 0.471731 0.158156
vt 0.490000 0.250000
vt 0.471731 0.341844
vt 0.419706 0.419706
vt 0.341844 0.471731
vt 0.500000 1.000000
vt 0.437500 1.000000
vt 0.937500 1.000000
vt 0.875000 1.000000
vt 0.375000 1.000000
vt 0.812500 1.000000
vt 0.312500 1.000000
vt 0.750000 1.000000
vt 0.250000 1.000000
vt 0.687500 1.000000
vt 0.187500 1.000000
vt 0.625000 1.000000
vt 0.125000 1.000000
vt 0.562500 1.000000
vt 1.000000 1.000000
vt 0.500000 1.000000
vt 0.416667 1.000000
vt 0.333333 1.000000
vt 0.250000 1.000000
vt 0.166667 1.000000
vt 0.083333 1.000000
vt 0.000000 1.000000
vt 0.916667 1.000000
vt 0.833333 1.000000
vt 0.750000 1.000000
vt 0.666667 1.000000
vt 0.583333 1.000000
vt 0.500000 0.000000
vt 0.583333 0.000000
vt 0.666667 0.000000
vt 0.750000 0.000000
vt 0.833333 0.000000
vt 0.916667 0.000000
vt 1.000000 0.000000
vt 0.083333 0.000000
vt 0.166667 0.000000
vt 0.250000 0.000000
vt 0.333333 0.000000
vt 0.416667 0.000000
vt 0.000000 0.000000
vt 1.000000 1.000000
vt 0.000000 1.000000
vt 0.083333 1.000000
vt 0.083333 0.000000
vt 0.166667 1.000000
vt 0.166667 0.000000
vt 0.250000 1.000000
vt 0.250000 0.000000
vt 0.333333 1.000000
vt 0.333333 0.000000
vt 0.416667 1.000000
vt 0.416667 0.000000
vt 0.500000 1.000000
vt 0.500000 0.000000
vt 0.583333 1.000000
vt 0.583333 0.000000
vt 0.666667 1.000000
vt 0.666667 0.000000
vt 0.750000 1.000000
vt 0.750000 0.000000
vt 0.833333 1.000000
vt 0.833333 0.000000
vt 0.916667 1.000000
vt 0.916667 0.000000
vt 1.000000 1.000000
vt 1.000000 0.000000
vt 0.000000 1.000000
vt 0.083333 1.000000
vt 0.083333 0.000000
vt 0.000000 0.000000
vt 0.166667 1.000000
vt 0.166667 0.000000
vt 0.250000 1.000000
vt 0.250000 0.000000
vt 0.333333 1.000000
vt 0.333333 0.000000
vt 0.416667 1.000000
vt 0.416667 0.000000
vt 0.500000 1.000000
vt 0.500000 0.000000
vt 0.583333 1.000000
vt 0.583333 0.000000
vt 0.666667 1.000000
vt 0.666667 0.000000
vt 0.750000 1.000000
vt 0.750000 0.000000
vt 0.833333 1.000000
vt 0.833333 0.000000
vt 0.916667 1.000000
vt 0.916667 0.000000
vt 1.000000 1.000000
vt 1.000000 0.000000
vt 0.000000 1.000000
vt 0.125000 1.000000
vt 0.125000 0.000000
vt 0.250000 1.000000
vt 0.250000 0.000000
vt 0.375000 1.000000
vt 0.375000 0.000000
vt 0.500000 1.000000
vt 0.500000 0.000000
vt 0.625000 1.000000
vt 0.625000 0.000000
vt 0.750000 1.000000
vt 0.750000 0.000000
vt 0.875000 1.000000
vt 0.875000 0.000000
vt 1.000000 1.000000
vt 1.000000 0.000000
vt 0.000000 1.000000
vt 0.250000 1.000000
vt 0.250000 0.000000
vt 0.500000 1.000000
vt 0.500000 0.000000
vt 0.750000 1.000000
vt 0.750000 0.000000
vt 1.000000 1.000000
vt 1.000000 0.000000
vt 0.000000 1.000000
vt 0.125000 1.000000
vt 0.125000 0.000000
vt 0.250000 1.000000
vt 0.250000 0.000000
vt 0.375000 1.000000
vt 0.375000 0.000000
vt 0.500000 1.000000
vt 0.500000 0.000000
vt 0.625000 1.000000
vt 0.625000 0.000000
vt 0.750000 1.000000
vt 0.750000 0.000000
vt 0.875000 1.000000
vt 0.875000 0.000000
vt 1.000000 1.000000
vt 1.000000 0.000000
vn 0.0000 0.0000 1.0000
vn 0.0000 -0.0000 -1.0000
vn -0.0000 0.8575 -0.5145
vn 0.3281 0.7922 -0.5145
vn -0.3281 0.7922 -0.5145
vn 0.6063 0.6063 -0.5145
vn 0.7922 0.3281 -0.5145
vn 0.8575 -0.0000 -0.5145
vn 0.7922 -0.3281 -0.5145
vn 0.6063 -0.6063 -0.5145
vn 0.3281 -0.7922 -0.5145
vn -0.0000 -0.8575 -0.5145
vn -0.3281 -0.7922 -0.5145
vn -0.6063 -0.6063 -0.5145
vn -0.7922 -0.3281 -0.5145
vn -0.8575 0.0000 -0.5145
vn -0.7922 0.3281 -0.5145
vn -0.6063 0.6063 -0.5145
vn 0.0000 1.0000 0.0000
vn -0.3827 0.9239 0.0000
vn -0.3827 -0.9239 0.0000
vn -0.0000 -1.0000 0.0000
vn 0.7071 0.7071 0.0000
vn 0.3827 0.9239 0.0000
vn -0.7071 -0.7071 0.0000
vn 0.9239 0.3827 0.0000
vn -0.9239 -0.3827 0.0000
vn 1.0000 -0.0000 0.0000
vn -1.0000 0.0000 0.0000
vn 0.9239 -0.3827 0.0000
vn -0.9239 0.3827 0.0000
vn 0.7071 -0.7071 0.0000
vn -0.7071 0.7071 0.0000
vn 0.3827 -0.9239 0.0000
vn -0.7523 -0.6588 0.0000
vn 0.7710 -0.6369 0.0000
vn -0.7699 0.6382 0.0000
vn -0.7600 -0.6499 0.0000
vn 0.7568 0.6536 0.0000
vn -0.7690 0.6392 0.0000
vn 0.7668 -0.6419 0.0000
vn 0.7550 0.6557 0.0000
vn -0.9053 0.4249 0.0000
vn -0.8970 -0.4421 0.0000
vn 0.9021 0.4315 0.0000
vn -0.9090 0.4168 0.0000
vn 0.9056 -0.4241 0.0000
vn -0.8404 0.5420 0.0000
vn 0.8393 -0.5436 0.0000
s off
f 120/1/1 82/2/1 88/3/1 129/4/1 87/5/1 126/6/1 86/7/1 124/8/1 85/9/1 84/10/1 122/11/1 83/12/1
f 93/13/2 127/14/2 128/15/2 94/16/2 118/17/2 119/18/2 121/19/2 90/20/2 91/21/2 123/22/2 92/23/2 125/24/2
f 188/25/2 179/26/2 180/27/2 181/28/2 191/29/2 193/30/2 187/31/2 178/32/2
f 133/33/1 132/34/1 168/35/1 131/36/1 167/37/1 166/38/1 164/39/1 130/40/1
f 172/41/1 171/42/1 170/43/1 174/44/1 192/45/1 190/46/1 173/47/1 189/48/1
f 136/49/2 137/50/2 169/51/2 138/52/2 134/53/2 163/54/2 165/55/2 135/56/2
f 175/57/1 177/58/1 176/59/1 186/60/1
f 182/61/2 183/62/2 184/63/2 185/64/2
s 1
f 1/65/2 2/66/3 4/67/4
f 32/68/5 51/69/5 50/70/3 2/71/3
f 1/65/2 4/67/4 6/72/6
f 50/73/3 3/74/3 5/75/4 65/76/4
f 1/65/2 6/72/6 8/77/7
f 65/76/4 5/75/4 7/78/6 64/79/6
f 1/65/2 8/77/7 10/80/8
f 64/79/6 7/78/6 9/81/7 63/82/7
f 1/65/2 10/80/8 12/83/9
f 63/82/7 9/81/7 11/84/8 62/85/8
f 1/65/2 12/83/9 14/86/10
f 62/85/8 11/84/8 13/87/9 61/88/9
f 1/65/2 14/86/10 16/89/11
f 61/88/9 13/87/9 15/90/10 60/91/10
f 1/65/2 16/89/11 18/92/12
f 60/91/10 15/90/10 17/93/11 59/94/11
f 1/65/2 18/92/12 20/95/13
f 59/94/11 17/93/11 19/96/12 58/97/12
f 1/65/2 20/95/13 22/98/14
f 58/97/12 19/96/12 21/99/13 57/100/13
f 1/65/2 22/98/14 24/101/15
f 57/100/13 21/99/13 23/102/14 56/103/14
f 1/65/2 24/101/15 26/104/16
f 56/103/14 23/102/14 25/105/15 55/106/15
f 1/65/2 26/104/16 28/107/17
f 55/106/15 25/105/15 27/108/16 54/109/16
f 1/65/2 28/107/17 30/110/18
f 27/108/1 25/105/1 45/111/1 46/112/1
f 54/109/16 27/108/16 29/113/17 53/114/17
f 1/65/2 30/110/18 32/115/5
f 53/114/17 29/113/17 31/116/18 52/117/18
f 1/65/2 32/115/5 2/66/3
f 52/117/18 31/116/18 33/118/5 51/69/5
f 35/119/19 49/120/20 81/121/20 67/122/19
f 3/123/1 33/118/1 49/120/1 35/119/1
f 31/116/1 29/113/1 47/124/1 48/125/1
f 9/81/1 7/78/1 36/126/1 37/127/1
f 13/87/1 11/84/1 38/128/1 39/129/1
f 17/93/1 15/90/1 40/130/1 41/131/1
f 21/99/1 19/96/1 42/132/1 43/133/1
f 25/105/1 23/102/1 44/134/1 45/111/1
f 29/113/1 27/108/1 46/112/1 47/124/1
f 7/78/1 5/75/1 34/135/1 36/126/1
f 33/118/1 31/116/1 48/125/1 49/120/1
f 11/84/1 9/81/1 37/127/1 38/128/1
f 15/90/1 13/87/1 39/129/1 40/130/1
f 19/96/1 17/93/1 41/131/1 42/132/1
f 5/75/1 3/74/1 35/136/1 34/135/1
f 23/102/1 21/99/1 43/133/1 44/134/1
f 51/69/5 33/118/5 3/123/3 50/70/3
f 2/137/3 50/73/3 65/76/4 4/138/4
f 4/138/4 65/76/4 64/79/6 6/139/6
f 6/139/6 64/79/6 63/82/7 8/140/7
f 8/140/7 63/82/7 62/85/8 10/141/8
f 10/141/8 62/85/8 61/88/9 12/142/9
f 12/142/9 61/88/9 60/91/10 14/143/10
f 14/143/10 60/91/10 59/94/11 16/144/11
f 16/144/11 59/94/11 58/97/12 18/145/12
f 18/145/12 58/97/12 57/100/13 20/146/13
f 20/146/13 57/100/13 56/103/14 22/147/14
f 22/147/14 56/103/14 55/106/15 24/148/15
f 24/148/15 55/106/15 54/109/16 26/149/16
f 26/149/16 54/109/16 53/114/17 28/150/17
f 28/150/17 53/114/17 52/117/18 30/151/18
f 30/151/18 52/117/18 51/69/5 32/68/5
f 67/152/1 81/153/1 80/154/1 79/155/1 78/156/1 77/157/1 76/158/1 75/159/1 74/160/1 73/161/1 72/162/1 71/163/1 70/164/1 69/165/1 68/166/1 66/167/1
f 43/133/21 42/132/22 74/168/22 75/169/21
f 36/126/23 34/135/24 66/170/24 68/171/23
f 44/134/25 43/133/21 75/169/21 76/172/25
f 37/127/26 36/126/23 68/171/23 69/173/26
f 45/111/27 44/134/25 76/172/25 77/174/27
f 38/128/28 37/127/26 69/173/26 70/175/28
f 46/112/29 45/111/27 77/174/27 78/176/29
f 39/129/30 38/128/28 70/175/28 71/177/30
f 47/124/31 46/112/29 78/176/29 79/178/31
f 40/130/32 39/129/30 71/177/30 72/179/32
f 48/125/33 47/124/31 79/178/31 80/180/33
f 41/131/34 40/130/32 72/179/32 73/181/34
f 49/120/20 48/125/33 80/180/33 81/121/20
f 42/132/22 41/131/34 73/181/34 74/168/22
f 34/135/24 35/136/19 67/182/19 66/170/24
f 109/183/1 108/184/1 106/185/1 104/186/1 102/187/1 101/188/1 99/189/1 117/190/1 115/191/1 113/192/1 111/193/1 89/194/1
f 96/195/2 97/196/2 110/197/2 112/198/2 114/199/2 116/200/2 98/201/2 100/202/2 95/203/2 103/204/2 105/205/2 107/206/2
f 99/189/19 101/188/19 100/202/19 98/207/19
f 101/188/28 102/187/28 95/203/28 100/202/28
f 102/187/22 104/186/22 103/204/22 95/203/22
f 104/186/28 106/185/28 105/205/28 103/204/28
f 106/185/22 108/184/22 107/206/22 105/205/22
f 108/184/29 109/183/29 96/195/29 107/206/29
f 109/183/22 89/194/22 97/196/22 96/195/22
f 89/194/29 111/193/29 110/197/29 97/196/29
f 111/193/19 113/192/19 112/198/19 110/197/19
f 113/192/29 115/191/29 114/199/29 112/198/29
f 115/191/19 117/190/19 116/200/19 114/199/19
f 117/190/28 99/208/28 98/201/28 116/200/28
f 82/209/22 120/210/22 119/211/22 118/17/22
f 120/210/35 83/212/35 121/213/35 119/211/35
f 83/212/36 122/214/36 90/215/36 121/213/36
f 122/214/22 84/216/22 91/217/22 90/215/22
f 84/216/37 85/218/37 123/219/37 91/217/37
f 85/218/38 124/220/38 92/221/38 123/219/38
f 124/220/19 86/222/19 125/223/19 92/221/19
f 86/222/39 126/224/39 93/225/39 125/223/39
f 126/224/40 87/226/40 127/227/40 93/225/40
f 87/226/19 129/228/19 128/229/19 127/227/19
f 129/228/41 88/230/41 94/231/41 128/229/41
f 88/230/42 82/232/42 118/233/42 94/231/42
f 143/234/19 145/235/19 144/236/19 142/237/19
f 145/235/28 147/238/28 146/239/28 144/236/28
f 147/238/22 148/240/22 139/241/22 146/239/22
f 148/240/28 150/242/28 149/243/28 139/241/28
f 150/242/22 152/244/22 151/245/22 149/243/22
f 152/244/29 153/246/29 140/247/29 151/245/29
f 153/246/22 154/248/22 141/249/22 140/247/22
f 154/248/29 156/250/29 155/251/29 141/249/29
f 156/250/19 158/252/19 157/253/19 155/251/19
f 158/252/29 160/254/29 159/255/29 157/253/29
f 160/254/19 162/256/19 161/257/19 159/255/19
f 162/256/28 143/258/28 142/259/28 161/257/28
f 130/260/43 164/261/43 163/262/43 134/53/43
f 164/261/44 166/263/44 165/264/44 163/262/44
f 166/263/19 167/265/19 135/266/19 165/264/19
f 167/265/45 131/267/45 136/268/45 135/266/45
f 131/267/46 168/269/46 137/270/46 136/268/46
f 168/269/19 132/271/19 169/272/19 137/270/19
f 132/271/47 133/273/47 138/274/47 169/272/47
f 133/273/22 130/275/22 134/276/22 138/274/22
f 175/277/29 186/278/29 185/279/29 184/63/29
f 186/278/19 176/280/19 182/281/19 185/279/19
f 176/280/28 177/282/28 183/283/28 182/281/28
f 177/282/22 175/284/22 184/285/22 183/283/22
f 170/286/28 171/287/28 178/288/28 187/31/28
f 171/287/22 172/289/22 188/290/22 178/288/22
f 172/289/48 189/291/48 179/292/48 188/290/48
f 189/291/22 173/293/22 180/294/22 179/292/22
f 173/293/29 190/295/29 181/296/29 180/294/29
f 190/295/19 192/297/19 191/298/19 181/296/19
f 192/297/49 174/299/49 193/300/49 191/298/49
f 174/299/19 170/301/19 187/302/19 193/300/19
f 143/258/1 162/256/1 160/254/1 158/252/1 156/250/1 154/248/1 153/246/1 152/244/1 150/242/1 148/240/1 147/238/1 145/235/1
f 140/247/2 141/249/2 155/251/2 157/253/2 159/255/2 161/257/2 142/237/2 144/236/2 146/239/2 139/241/2 149/243/2 151/245/2
