# Blender v2.93.1 OBJ File: 'environment.blend'
# www.blender.org
mtllib environment.mtl
o environment
v -5.000000 0.000000 5.000000
v 5.000000 0.000000 5.000000
v -5.000000 0.000000 -5.000000
v 5.000000 0.000000 -5.000000
v -4.000000 0.000000 4.000000
v -4.000000 0.000000 3.000000
v -4.000000 0.000000 2.000000
v -4.000000 0.000000 -3.000000
v -4.000000 0.000000 -4.000000
v -3.000000 0.000000 2.000000
v -3.000000 0.000000 -2.000000
v -2.000000 0.000000 4.000000
v -2.000000 0.000000 3.000000
v -2.000000 0.000000 -3.000000
v -2.000000 0.000000 -4.000000
v 2.000000 0.000000 4.000000
v 2.000000 0.000000 3.000000
v 2.000000 0.000000 -3.000000
v 2.000000 0.000000 -4.000000
v 3.000000 0.000000 2.000000
v 3.000000 0.000000 -2.000000
v 4.000000 0.000000 4.000000
v 4.000000 0.000000 3.000000
v 4.000000 0.000000 2.000000
v 4.000000 0.000000 -2.000000
v 4.000000 0.000000 -3.000000
v 4.000000 0.000000 -4.000000
v -4.000000 2.000000 -3.000000
v -4.000000 2.000000 -4.000000
v -2.000000 2.000000 -3.000000
v -2.000000 2.000000 -4.000000
v -4.000000 0.000000 -2.000000
v -4.000000 1.000000 2.000000
v -3.000000 1.000000 2.000000
v -4.000000 1.000000 -2.000000
v -3.000000 1.000000 -2.000000
v -4.000000 2.000000 4.000000
v -4.000000 2.000000 3.000000
v -2.000000 2.000000 4.000000
v -2.000000 2.000000 3.000000
v 3.000000 1.000000 2.000000
v 3.000000 1.000000 -2.000000
v 4.000000 1.000000 2.000000
v 4.000000 1.000000 -2.000000
v 2.000000 2.000000 4.000000
v 2.000000 2.000000 3.000000
v 4.000000 2.000000 4.000000
v 4.000000 2.000000 3.000000
v 2.000000 2.000000 -3.000000
v 2.000000 2.000000 -4.000000
v 4.000000 2.000000 -3.000000
v 4.000000 2.000000 -4.000000
v 2.000000 -0.500000 -2.000000
v -2.000000 -0.500000 -2.000000
v 2.000000 -0.500000 2.000000
v -2.000000 -0.500000 2.000000
vt -0.299720 -0.299909
vt -0.299485 0.098209
vt -0.298961 0.894617
vt -0.298080 1.298567
vt -0.499032 1.499800
vt -0.499032 -0.499139
vt 0.895167 -0.299588
vt 0.097584 -0.299928
vt -0.100684 -0.299917
vt 1.497495 -0.499800
vt 1.296779 -0.299141
vt 1.095200 -0.299242
vt 0.112447 0.113078
vt -0.101485 0.098605
vt 0.097679 -0.100782
vt 1.297434 0.104147
vt 1.297867 0.900486
vt 1.100056 0.900249
vt 1.097680 0.105268
vt -0.099100 0.893301
vt 0.893488 -0.100552
vt 0.105372 1.098565
vt 0.104304 1.298568
vt -0.096243 1.298476
vt 1.496960 1.496479
vt 0.901884 1.298064
vt 1.099468 1.297909
vt 1.298115 1.297819
vt 0.901226 1.100055
vt 0.122282 0.876820
vt 0.886216 0.885979
vt 0.876331 0.121495
vt 0.000071 0.500000
vt 0.000071 0.166714
vt 0.333357 0.166714
vt 0.333357 0.500000
vt 0.166714 0.500000
vt 0.166714 0.833286
vt 0.000071 0.833286
vt 0.000071 0.500000
vt 0.100036 0.500000
vt 0.100036 0.899964
vt 0.000045 0.899964
vt 0.000045 0.500000
vt 0.833286 0.500000
vt 0.500000 0.500000
vt 0.500000 0.166714
vt 0.833286 0.166714
vt 0.500000 0.833286
vt 0.500000 0.999929
vt 0.166714 0.999929
vt 0.166714 0.833286
vt 0.000071 0.833286
vt 0.000071 0.500000
vt 0.166714 0.500000
vt 0.200027 0.899964
vt 0.200027 0.999955
vt 0.100036 0.999955
vt 0.500000 0.000071
vt 0.833286 0.000071
vt 0.500000 0.000071
vt 0.500000 0.333357
vt 0.166714 0.333357
vt 0.166714 0.000071
vt 0.000071 0.500000
vt 0.000071 0.166714
vt 0.166714 0.166714
vt 0.166714 0.500000
vt 0.500000 0.666643
vt 0.500000 0.999929
vt 0.166714 0.999929
vt 0.166714 0.666643
vt 0.000045 0.100036
vt 0.000045 0.000045
vt 0.100036 0.000045
vt 0.100036 0.100036
vt 0.100036 0.500000
vt 0.000045 0.500000
vt 0.500000 0.000071
vt 0.500000 0.333357
vt 0.166714 0.333357
vt 0.166714 0.000071
vt 0.999929 0.500000
vt 0.999929 0.166714
vt 0.200027 0.500000
vt 0.200027 0.000045
vt 0.200027 0.400009
vt 0.100036 0.400009
vt 0.100036 0.000045
vt 0.500000 0.500000
vt 0.000045 0.999955
vt 0.000045 0.599991
vt 0.100036 0.599991
vt 0.100036 0.999955
vt 0.200027 0.100036
vt 0.200027 0.500000
vt 0.500000 0.500000
vt 0.500000 0.000071
vt 0.500000 0.166714
vt 0.166714 0.000071
vt 0.500000 0.500000
vt 0.500000 0.833286
vt 0.500000 0.999929
vt 0.166714 0.999929
vn 0.0000 1.0000 0.0000
vn 0.2182 0.9512 0.2182
vn 0.0782 0.9700 0.2302
vn 0.2302 0.9700 0.0782
vn -0.0782 0.9700 -0.2302
vn 0.0782 0.9700 -0.2302
vn -0.0782 0.9700 0.2302
vn 0.2302 0.9700 -0.0782
vn -0.2302 0.9700 0.0782
vn -0.2302 0.9700 -0.0782
vn -0.2182 0.9512 0.2182
vn -0.2182 0.9512 -0.2182
vn 0.2182 0.9512 -0.2182
vn 0.0000 0.0000 -1.0000
vn 0.0000 0.0000 1.0000
vn -1.0000 0.0000 0.0000
vn 1.0000 0.0000 0.0000
usemtl floor
s 1
f 9/1/1 15/2/1 19/3/1 27/4/1 4/5/1 3/6/1
f 7/7/1 32/8/1 8/9/1 9/1/1 3/6/1 1/10/1 5/11/1 6/12/1
f 54/13/2 14/14/3 11/15/4
f 12/16/1 16/17/1 17/18/5 13/19/6
f 14/14/3 18/20/7 19/3/1 15/2/1
f 6/12/1 13/19/6 10/21/8 7/7/1
f 21/22/9 25/23/1 26/24/1 18/20/7
f 2/25/1 4/5/1 27/4/1 26/24/1 25/23/1 24/26/1 23/27/1 22/28/1
f 32/8/1 11/15/4 14/14/3 8/9/1
f 1/10/1 2/25/1 22/28/1 16/17/1 12/16/1 5/11/1
f 17/18/5 23/27/1 24/26/1 20/29/10
f 53/30/11 18/20/7 14/14/3 54/13/2
f 21/22/9 18/20/7 53/30/11
f 55/31/12 53/30/11 54/13/2 56/32/13
f 20/29/10 21/22/9 53/30/11 55/31/12
f 56/32/13 54/13/2 11/15/4 10/21/8
f 17/18/5 55/31/12 56/32/13 13/19/6
f 17/18/5 20/29/10 55/31/12
f 13/19/6 56/32/13 10/21/8
usemtl building
f 9/33/14 29/34/14 31/35/14 15/36/14
f 49/37/1 51/38/1 52/39/1 50/40/1
f 34/41/1 36/42/1 35/43/1 33/44/1
f 8/45/15 14/46/15 30/47/15 28/48/15
f 6/49/16 5/50/16 37/51/16 38/52/16
f 37/53/1 39/54/1 40/55/1 38/52/1
f 11/56/14 32/57/14 35/58/14 36/42/14
f 28/48/1 30/47/1 31/59/1 29/60/1
f 5/61/15 12/62/15 39/63/15 37/64/15
f 45/65/1 47/66/1 48/67/1 46/68/1
f 16/69/15 22/70/15 47/71/15 45/72/15
f 20/73/15 24/74/15 43/75/15 41/76/15
f 20/73/16 41/76/16 42/77/16 21/78/16
f 27/79/14 19/80/14 50/81/14 52/82/14
f 9/83/16 8/45/16 28/48/16 29/84/16
f 14/46/17 15/36/17 31/35/17 30/47/17
f 11/56/17 36/42/17 34/41/17 10/85/17
f 32/86/16 7/87/16 33/88/16 35/89/16
f 7/87/15 10/85/15 34/41/15 33/88/15
f 6/49/14 38/52/14 40/55/14 13/90/14
f 12/62/17 13/90/17 40/55/17 39/63/17
f 24/91/17 25/92/17 44/93/17 43/94/17
f 25/92/14 21/78/14 42/77/14 44/93/14
f 43/95/1 44/96/1 42/77/1 41/76/1
f 17/97/16 16/69/16 45/72/16 46/68/16
f 22/98/17 23/99/17 48/67/17 47/100/17
f 23/99/14 17/97/14 46/68/14 48/67/14
f 18/101/15 26/102/15 51/38/15 49/37/15
f 19/80/16 18/101/16 49/37/16 50/81/16
f 26/102/17 27/103/17 52/104/17 51/38/17
